{
  "accessors": [
    {
      "bufferView": 3,
      "componentType": 5126,
      "count": 12601,
      "max": [
        1.2318460941314697,
        2.421776056289673,
        0.5637786984443665
      ],
      "min": [
        -1.2318458557128906,
        -0.007872908376157284,
        -0.5156938433647156
      ],
      "type": "VEC3"
    },
    {
      "bufferView": 3,
      "byteOffset": 151212,
      "componentType": 5126,
      "count": 12601,
      "max": [
        0.9999991655349731,
        1.0,
        0.9998599886894226
      ],
      "min": [
        -0.9999991655349731,
        -1.0,
        -0.9999594688415527
      ],
      "type": "VEC3"
    },
    {
      "bufferView": 2,
      "componentType": 5126,
      "count": 12601,
      "max": [
        0.9970703125,
        0.991912841796875
      ],
      "min": [
        0.002498626708984375,
        0.00537109375
      ],
      "type": "VEC2"
    },
    {
      "bufferView": 1,
      "componentType": 5125,
      "count": 66714,
      "type": "SCALAR"
    },
    {
      "bufferView": 5,
      "componentType": 5126,
      "count": 57,
      "max": [
        39.370079040527344,
        9.55248196987668e-07,
        1.4472074383320432e-07,
        0.0,
        0.363434761762619,
        39.370079040527344,
        0.1784888058900833,
        0.0,
        0.9990137219429016,
        0.6380173563957214,
        39.370079040527344,
        0.0,
        1.0611599683761597,
        1.8735697269439697,
        0.29120469093322754,
        1.0
      ],
      "min": [
        -3.6248434298613574e-07,
        -0.059382278472185135,
        -1.000000238418579,
        0.0,
        -0.6380177140235901,
        -1.0000001192092896,
        -5.920538569625933e-06,
        0.0,
        -0.008923365734517574,
        -0.3634348511695862,
        -1.0000001192092896,
        0.0,
        -1.0611588954925537,
        -2.12666916847229,
        -0.5508667230606079,
        1.0
      ],
      "type": "MAT4"
    },
    {
      "bufferView": 0,
      "componentType": 5123,
      "count": 12601,
      "type": "VEC4"
    },
    {
      "bufferView": 4,
      "componentType": 5126,
      "count": 12601,
      "max": [
        1.0,
        0.49803924560546875,
        0.32549020648002625,
        0.1882352977991104
      ],
      "min": [
        0.30980393290519714,
        0.0,
        0.0,
        0.0
      ],
      "type": "VEC4"
    }
  ],
  "asset": {
    "extras": {
      "author": "talkingben360 (https://sketchfab.com/talkingben360)",
      "license": "CC-BY-4.0 (http://creativecommons.org/licenses/by/4.0/)",
      "source": "https://sketchfab.com/3d-models/patrick-rigged-19939d59bb5a448bb6ea041d8b931f41",
      "title": "Patrick. Rigged"
    },
    "generator": "Sketchfab-15.12.0",
    "version": "2.0"
  },
  "bufferViews": [
    {
      "buffer": 0,
      "byteLength": 100808,
      "byteStride": 8,
      "name": "shortBufferViews",
      "target": 34962
    },
    {
      "buffer": 0,
      "byteLength": 266856,
      "byteOffset": 100808,
      "name": "floatBufferViews",
      "target": 34963
    },
    {
      "buffer": 0,
      "byteLength": 100808,
      "byteOffset": 367664,
      "byteStride": 8,
      "name": "floatBufferViews",
      "target": 34962
    },
    {
      "buffer": 0,
      "byteLength": 302424,
      "byteOffset": 468472,
      "byteStride": 12,
      "name": "floatBufferViews",
      "target": 34962
    },
    {
      "buffer": 0,
      "byteLength": 201616,
      "byteOffset": 770896,
      "byteStride": 16,
      "name": "floatBufferViews",
      "target": 34962
    },
    {
      "buffer": 0,
      "byteLength": 3648,
      "byteOffset": 972512,
      "name": "floatBufferViews"
    }
  ],
  "buffers": [
    {
      "byteLength": 976160,
      "uri": "scene.bin"
    }
  ],
  "images": [
    {
      "uri": "textures/MI_Patrick_PBR_baseColor.png"
    }
  ],
  "materials": [
    {
      "doubleSided": true,
      "name": "MI_Patrick_PBR",
      "pbrMetallicRoughness": {
        "baseColorTexture": {
          "index": 0
        },
        "metallicFactor": 0.0,
        "roughnessFactor": 0.8211145618000169
      }
    }
  ],
  "meshes": [
    {
      "name": "SK_Patrick.mo_MI_Patrick_PBR_0",
      "primitives": [
        {
          "attributes": {
            "JOINTS_0": 5,
            "NORMAL": 1,
            "POSITION": 0,
            "TEXCOORD_0": 2,
            "TEXCOORD_1": 2,
            "WEIGHTS_0": 6
          },
          "indices": 3,
          "material": 0,
          "mode": 4
        }
      ]
    }
  ],
  "nodes": [
    {
      "children": [
        1
      ],
      "matrix": [
        1.0,
        0.0,
        0.0,
        0.0,
        0.0,
        2.220446049250313e-16,
        -1.0,
        0.0,
        0.0,
        1.0,
        2.220446049250313e-16,
        0.0,
        0.0,
        0.0,
        0.0,
        1.0
      ],
      "name": "Sketchfab_model"
    },
    {
      "children": [
        2
      ],
      "matrix": [
        0.02539999969303608,
        0.0,
        0.0,
        0.0,
        0.0,
        0.0,
        0.02539999969303608,
        0.0,
        0.0,
        -0.02539999969303608,
        0.0,
        0.0,
        0.0,
        0.0,
        0.0,
        1.0
      ],
      "name": "SK_Patrick.fbx"
    },
    {
      "children": [
        3
      ],
      "name": "RootNode"
    },
    {
      "children": [
        4
      ],
      "matrix": [
        39.370079040527344,
        0.0,
        0.0,
        0.0,
        0.0,
        8.74191364642115e-15,
        -39.370079040527344,
        0.0,
        0.0,
        39.370079040527344,
        8.74191364642115e-15,
        0.0,
        0.0,
        0.0,
        0.0,
        1.0
      ],
      "name": "SK_Patrick.ao"
    },
    {
      "children": [
        5,
        63,
        62
      ],
      "name": "Object_4"
    },
    {
      "children": [
        6
      ],
      "name": "_rootJoint"
    },
    {
      "children": [
        7,
        60
      ],
      "name": "jt_root_01",
      "rotation": [
        0.7071066498756409,
        0.0,
        0.0,
        0.70710688829422
      ]
    },
    {
      "children": [
        8,
        52,
        56
      ],
      "name": "jt_hip_02",
      "rotation": [
        -1.4210854715202004e-14,
        -0.0,
        0.0,
        1.0
      ],
      "translation": [
        0.0,
        0.5043474435806274,
        -8.526512829121202e-14
      ]
    },
    {
      "children": [
        9,
        51
      ],
      "name": "jt_spine_03",
      "rotation": [
        -1.4210854715202004e-14,
        -0.0,
        0.0,
        1.0
      ],
      "translation": [
        0.0,
        0.25225263833999634,
        0.026305507868528366
      ]
    },
    {
      "children": [
        10
      ],
      "name": "jt_spine1_04",
      "rotation": [
        5.0824269237637054e-09,
        0.0,
        0.0,
        1.0
      ],
      "translation": [
        0.0,
        0.22802507877349854,
        -0.009944580495357513
      ]
    },
    {
      "children": [
        11,
        16,
        46
      ],
      "name": "jt_spine2_00",
      "rotation": [
        3.3215741268577403e-09,
        0.0,
        0.0,
        1.0
      ],
      "translation": [
        0.0,
        0.18250995874404907,
        -0.016360921785235405
      ]
    },
    {
      "children": [
        12
      ],
      "name": "jt_shoulder_L_05",
      "rotation": [
        2.122229147971666e-08,
        0.0,
        0.0,
        1.0
      ],
      "translation": [
        0.2981692850589752,
        0.04575848579406738,
        -0.052421171218156815
      ]
    },
    {
      "children": [
        13
      ],
      "name": "jt_arm_L_06",
      "translation": [
        0.17553669214248657,
        0.0,
        0.0
      ]
    },
    {
      "children": [
        14
      ],
      "name": "jt_forearm_L_07",
      "rotation": [
        3.5268783449282637e-09,
        0.0,
        0.0,
        1.0
      ],
      "translation": [
        0.2779809534549713,
        0.0,
        -3.725290298461914e-09
      ]
    },
    {
      "children": [
        15
      ],
      "name": "jt_hand_L_08",
      "rotation": [
        2.2617001604885445e-09,
        0.0,
        0.0,
        1.0
      ],
      "translation": [
        0.3094719648361206,
        0.0,
        0.0
      ]
    },
    {
      "name": "jt_hand_end_L_09",
      "rotation": [
        2.6469779601696886e-23,
        0.0,
        0.0,
        1.0
      ],
      "translation": [
        0.16875410079956055,
        -0.013493537902832031,
        -3.725290298461914e-09
      ]
    },
    {
      "children": [
        17,
        41
      ],
      "name": "jt_neck_010",
      "rotation": [
        9.903345699058264e-09,
        0.0,
        0.0,
        1.0
      ],
      "translation": [
        0.0,
        0.228532075881958,
        0.01090018730610609
      ]
    },
    {
      "children": [
        18,
        21,
        22,
        23,
        24,
        25,
        29,
        33,
        37
      ],
      "name": "jt_head_011",
      "rotation": [
        -2.6469779601696886e-23,
        -0.0,
        0.0,
        1.0
      ],
      "translation": [
        0.0,
        0.2111278772354126,
        0.0007127728313207626
      ]
    },
    {
      "children": [
        19
      ],
      "name": "jt_head1_012",
      "rotation": [
        1.633807933387743e-08,
        0.0,
        0.0,
        1.0
      ],
      "translation": [
        0.0,
        0.29189133644104004,
        -0.03579701855778694
      ]
    },
    {
      "children": [
        20
      ],
      "name": "jt_head2_013",
      "translation": [
        0.0,
        0.22798240184783936,
        -0.003733990713953972
      ]
    },
    {
      "name": "jt_head3_014",
      "rotation": [
        9.442159942807393e-09,
        0.0,
        0.0,
        1.0
      ],
      "translation": [
        0.0,
        0.2957754135131836,
        -0.008731704205274582
      ]
    },
    {
      "name": "jt_eye_L_015",
      "rotation": [
        -2.384185791015625e-07,
        -0.0,
        0.0,
        1.0
      ],
      "translation": [
        0.10018400102853775,
        0.023819923400878906,
        0.2795916795730591
      ]
    },
    {
      "name": "jt_eyebrow_L_016",
      "rotation": [
        1.0231404701244173e-07,
        0.0,
        0.0,
        1.0
      ],
      "translation": [
        0.09869346022605896,
        0.2667790651321411,
        0.15788860619068146
      ]
    },
    {
      "name": "jt_eye_R_017",
      "rotation": [
        1.0,
        -5.699935000310101e-15,
        -7.549790126404332e-08,
        -7.549790126404332e-08
      ],
      "translation": [
        -0.10018400102853775,
        0.023814916610717773,
        0.27959200739860535
      ]
    },
    {
      "name": "jt_eyebrow_R_018",
      "rotation": [
        1.0,
        2.370003268615216e-14,
        -7.549790126404332e-08,
        3.1391647326017846e-07
      ],
      "translation": [
        -0.09869350492954254,
        0.2667747735977173,
        0.1578890085220337
      ]
    },
    {
      "children": [
        26
      ],
      "name": "jt_eyelid_DW_R_019",
      "rotation": [
        -0.07845985144376755,
        -0.0,
        0.0,
        0.9969173669815063
      ],
      "translation": [
        -0.10722599923610687,
        -0.1333446502685547,
        0.21641787886619568
      ]
    },
    {
      "children": [
        27
      ],
      "name": "jt_eyelid_DW1_R_020",
      "rotation": [
        1.0281800086886506e-06,
        0.0,
        0.0,
        1.0
      ],
      "translation": [
        -0.0004058629274368286,
        0.009710907936096191,
        -8.58008861541748e-05
      ]
    },
    {
      "children": [
        28
      ],
      "name": "jt_eyelid_DW2_R_021",
      "rotation": [
        -4.768372718899627e-07,
        -0.0,
        0.0,
        1.0
      ],
      "translation": [
        -0.0004968941211700439,
        0.011888742446899414,
        -0.00010514259338378906
      ]
    },
    {
      "name": "jt_eyelid_DW3_R_022",
      "rotation": [
        -7.450578820566989e-09,
        -0.0,
        0.0,
        1.0
      ],
      "translation": [
        -0.0008976906538009644,
        0.021478891372680664,
        -0.00018990039825439453
      ]
    },
    {
      "children": [
        30
      ],
      "name": "jt_eyelid_UP_R_023",
      "rotation": [
        -0.07531680166721344,
        -0.0,
        0.0,
        0.9971596598625183
      ],
      "translation": [
        -0.09033100306987762,
        0.18000102043151855,
        0.17120273411273956
      ]
    },
    {
      "children": [
        31
      ],
      "name": "jt_eyelid_UP1_R_024",
      "rotation": [
        7.450579886381092e-08,
        0.0,
        0.0,
        1.0
      ],
      "translation": [
        7.450580596923828e-09,
        -0.00602114200592041,
        -2.9802322387695313e-08
      ]
    },
    {
      "children": [
        32
      ],
      "name": "jt_eyelid_UP2_R_025",
      "rotation": [
        3.7252908668961027e-07,
        0.0,
        0.0,
        1.0
      ],
      "translation": [
        0.0,
        -0.006152153015136719,
        2.9802322387695313e-08
      ]
    },
    {
      "name": "jt_eyelid_UP3_R_026",
      "rotation": [
        1.4901161193847656e-08,
        0.0,
        0.0,
        1.0
      ],
      "translation": [
        0.0,
        -0.01710808277130127,
        5.551115123125783e-17
      ]
    },
    {
      "children": [
        34
      ],
      "name": "jt_eyelid_DW_L_027",
      "rotation": [
        -0.07845985144376755,
        -0.0,
        0.0,
        0.9969173669815063
      ],
      "translation": [
        0.10722599923610687,
        -0.1337050199508667,
        0.2167830467224121
      ]
    },
    {
      "children": [
        35
      ],
      "name": "jt_eyelid_DW1_L_028",
      "rotation": [
        7.376073085652024e-07,
        0.0,
        0.0,
        1.0
      ],
      "translation": [
        6.37546181678772e-05,
        0.009717702865600586,
        -0.00017783045768737793
      ]
    },
    {
      "children": [
        36
      ],
      "name": "jt_eyelid_DW2_L_029",
      "rotation": [
        1.1175872316471214e-07,
        0.0,
        0.0,
        1.0
      ],
      "translation": [
        7.80448317527771e-05,
        0.011897444725036621,
        -0.00021779537200927734
      ]
    },
    {
      "name": "jt_eyelid_DW3_L_030",
      "rotation": [
        -7.450577932388569e-09,
        -0.0,
        0.0,
        1.0
      ],
      "translation": [
        0.000141046941280365,
        0.021496057510375977,
        -0.0003934502601623535
      ]
    },
    {
      "children": [
        38
      ],
      "name": "jt_eyelid_UP_L_031",
      "rotation": [
        -0.08959005028009415,
        0.0018121894681826234,
        0.02966097742319107,
        0.9955354332923889
      ],
      "translation": [
        0.09033099561929703,
        0.18000507354736328,
        0.17120301723480225
      ]
    },
    {
      "children": [
        39
      ],
      "name": "jt_eyelid_UP1_L_032",
      "rotation": [
        8.94069742685133e-08,
        -4.656617313969491e-10,
        -3.725290742551124e-09,
        1.0
      ],
      "translation": [
        0.0,
        -0.006029725074768066,
        0.0
      ]
    },
    {
      "children": [
        40
      ],
      "name": "jt_eyelid_UP2_L_033",
      "rotation": [
        -4.321335325130349e-07,
        2.0908169062749948e-07,
        2.495943931535294e-07,
        1.0
      ],
      "scale": [
        1.0000009536743164,
        1.0,
        1.0
      ],
      "translation": [
        0.0,
        -0.006149649620056152,
        -5.551115123125783e-17
      ]
    },
    {
      "name": "jt_eyelid_UP3_L_034",
      "rotation": [
        -8.673615311932504e-19,
        4.6566123179658803e-10,
        1.8626449271863521e-09,
        1.0
      ],
      "translation": [
        -2.9802322387695313e-08,
        -0.01710951328277588,
        -2.9802322387695313e-08
      ]
    },
    {
      "children": [
        42
      ],
      "name": "jt_tongue_0_035",
      "rotation": [
        -0.13074815273284912,
        -0.6949137449264526,
        0.13074806332588196,
        0.6949135065078735
      ],
      "translation": [
        -6.305535605509666e-16,
        -0.06868183612823486,
        0.017972510308027267
      ]
    },
    {
      "children": [
        43
      ],
      "name": "jt_tongue_1_036",
      "rotation": [
        2.7235117272539355e-08,
        7.180357641800583e-08,
        -0.2066829651594162,
        0.9784079790115356
      ],
      "translation": [
        0.08571040630340576,
        2.384185791015625e-07,
        -1.6986273720931422e-08
      ]
    },
    {
      "children": [
        44
      ],
      "name": "jt_tongue_2_037",
      "rotation": [
        1.6177619902463811e-15,
        -3.0869736291922606e-14,
        -0.19314125180244446,
        0.9811710715293884
      ],
      "translation": [
        0.07905004918575287,
        3.5762786865234375e-07,
        -4.910846840289196e-09
      ]
    },
    {
      "children": [
        45
      ],
      "name": "jt_tongue_3_038",
      "rotation": [
        5.354522514267046e-08,
        5.780120915233056e-08,
        -0.129029780626297,
        0.9916407465934753
      ],
      "scale": [
        1.0,
        1.0000009536743164,
        1.0
      ],
      "translation": [
        0.08362343907356262,
        0.0,
        -1.2677416449946577e-08
      ]
    },
    {
      "name": "jt_tongue_4_039",
      "rotation": [
        -0.23978032171726227,
        0.6652107238769531,
        0.2397802770137787,
        0.6652108430862427
      ],
      "translation": [
        0.019941985607147217,
        2.384185791015625e-07,
        -3.873736886816914e-10
      ]
    },
    {
      "children": [
        47
      ],
      "name": "jt_shoulder_R_040",
      "rotation": [
        1.0,
        1.4699984054989367e-14,
        -7.549790126404332e-08,
        1.947071694985425e-07
      ],
      "translation": [
        -0.29816901683807373,
        0.04575848579406738,
        -0.05242118239402771
      ]
    },
    {
      "children": [
        48
      ],
      "name": "jt_arm_R_041",
      "rotation": [
        1.355475234277037e-07,
        7.549790836947068e-08,
        1.0233549677964287e-14,
        1.0
      ],
      "translation": [
        -0.17553696036338806,
        2.220446049250313e-16,
        -1.1175870895385742e-08
      ]
    },
    {
      "children": [
        49
      ],
      "name": "jt_forearm_R_042",
      "rotation": [
        -2.6469779601696886e-23,
        -5.2420673005665805e-22,
        2.541098841762901e-21,
        1.0
      ],
      "translation": [
        -0.2779809534549713,
        2.220446049250313e-16,
        7.450580596923828e-09
      ]
    },
    {
      "children": [
        50
      ],
      "name": "jt_hand_R_043",
      "rotation": [
        -2.6469779601696886e-23,
        7.463426908247925e-22,
        5.863911251280352e-31,
        1.0
      ],
      "translation": [
        -0.30947303771972656,
        2.220446049250313e-16,
        7.450580596923828e-09
      ]
    },
    {
      "name": "jt_hand_end_R_044",
      "rotation": [
        -2.6469779601696886e-23,
        -1.0069025642950788e-22,
        2.9330698062056592e-30,
        1.0
      ],
      "translation": [
        -0.16875004768371582,
        0.013493537902832031,
        3.725290298461914e-09
      ]
    },
    {
      "name": "jt_belly_045",
      "rotation": [
        7.909339672096394e-08,
        0.0,
        0.0,
        1.0
      ],
      "translation": [
        0.0,
        -0.02888619899749756,
        0.52456134557724
      ]
    },
    {
      "children": [
        53
      ],
      "name": "jt_leg_L_046",
      "rotation": [
        1.1324971993173505e-12,
        6.225312176866282e-08,
        1.6681429997333908e-06,
        1.0
      ],
      "translation": [
        0.27195000648498535,
        -0.15728244185447693,
        3.552713678800501e-14
      ]
    },
    {
      "children": [
        54
      ],
      "name": "jt_knee_L_047",
      "rotation": [
        1.379831360281969e-09,
        -2.384185791015625e-07,
        -1.192092668134137e-06,
        1.0
      ],
      "translation": [
        -3.2782554626464844e-07,
        -0.1785132735967636,
        0.007131936959922314
      ]
    },
    {
      "children": [
        55
      ],
      "name": "jt_foot_L_048",
      "rotation": [
        1.179581063902313e-13,
        1.2368803936624317e-07,
        -9.5367431640625e-07,
        1.0
      ],
      "translation": [
        -1.7881393432617188e-07,
        -0.16855165362358093,
        -0.007131935562938452
      ]
    },
    {
      "name": "jt_foot_end_L_049",
      "rotation": [
        -1.4210854715202004e-14,
        1.6993066567598525e-13,
        6.521962438633718e-23,
        1.0
      ],
      "translation": [
        -2.9802322387695313e-08,
        -0.0485152043402195,
        2.681570521190224e-10
      ]
    },
    {
      "children": [
        57
      ],
      "name": "jt_leg_R_050",
      "rotation": [
        1.1466745521854227e-12,
        6.227313065210183e-08,
        1.6681458419043338e-06,
        1.0
      ],
      "translation": [
        -0.27195000648498535,
        -0.15728247165679932,
        1.4210854715202004e-14
      ]
    },
    {
      "children": [
        58
      ],
      "name": "jt_knee_R_051",
      "rotation": [
        9.288228284276556e-07,
        1.0084130863674545e-08,
        1.0083899049107004e-08,
        1.0
      ],
      "translation": [
        -5.960464477539063e-08,
        -0.17851285636425018,
        0.007131936959922314
      ]
    },
    {
      "children": [
        59
      ],
      "name": "jt_foot_R_052",
      "rotation": [
        2.1884022771700984e-06,
        -2.3841909069233225e-07,
        -2.3841793961310032e-07,
        1.0
      ],
      "translation": [
        9.5367431640625e-07,
        -0.1685519814491272,
        -0.007131621241569519
      ]
    },
    {
      "name": "jt_foot_end_R_053",
      "rotation": [
        4.3006484702345915e-06,
        3.973303457083244e-12,
        9.214312512995093e-07,
        1.0
      ],
      "translation": [
        -3.5762786865234375e-07,
        -0.04851521924138069,
        3.0237305281843874e-07
      ]
    },
    {
      "children": [
        61
      ],
      "name": "jt_attach_obj_054",
      "rotation": [
        4.7448497753066476e-07,
        0.0,
        0.0,
        1.0
      ],
      "translation": [
        0.0,
        0.551773190498352,
        1.1506766080856323
      ]
    },
    {
      "name": "jt_attach_obj_end_055",
      "rotation": [
        -4.76837158203125e-07,
        -0.0,
        0.0,
        1.0
      ],
      "translation": [
        0.0,
        0.12561970949172974,
        2.384185791015625e-07
      ]
    },
    {
      "matrix": [
        39.37007904052734,
        0.0,
        0.0,
        0.0,
        0.0,
        2.410722063958005e-15,
        -39.37007904052734,
        0.0,
        0.0,
        39.37007904052734,
        2.410722063958005e-15,
        0.0,
        0.0,
        -1.6128798279169132e-06,
        2.6278978992877455e-13,
        1.0
      ],
      "name": "Object_62"
    },
    {
      "mesh": 0,
      "name": "Object_63",
      "skin": 0
    }
  ],
  "samplers": [
    {
      "magFilter": 9729,
      "minFilter": 9987,
      "wrapS": 10497,
      "wrapT": 10497
    }
  ],
  "scene": 0,
  "scenes": [
    {
      "name": "Sketchfab_Scene",
      "nodes": [
        0
      ]
    }
  ],
  "skins": [
    {
      "inverseBindMatrices": 4,
      "joints": [
        5,
        6,
        7,
        8,
        9,
        10,
        11,
        12,
        13,
        14,
        15,
        16,
        17,
        18,
        19,
        20,
        21,
        22,
        23,
        24,
        25,
        26,
        27,
        28,
        29,
        30,
        31,
        32,
        33,
        34,
        35,
        36,
        37,
        38,
        39,
        40,
        41,
        42,
        43,
        44,
        45,
        46,
        47,
        48,
        49,
        50,
        51,
        52,
        53,
        54,
        55,
        56,
        57,
        58,
        59,
        60,
        61
      ],
      "skeleton": 5
    }
  ],
  "textures": [
    {
      "sampler": 0,
      "source": 0
    }
  ]
}
